# xmcd
#
# Track frame offsets:
#	150
#	21342
#	58964
#	72903
#	108534
#	134395
#	154355
#	180613
#	204076
#	243986
#	283105
#	321314
#
# Disc length: 4584 seconds
#
# Revision: 1
# Processed by: cddbd v1.5.2PL0 Copyright (c) Steve Scherf et al.
# Submitted via: audiograbber 1.83.01
#
DISCID=b611e60c
DTITLE=Grateful Dead - 73-12-04 Cincinnati Gardens, Cincinnati OH
DYEAR=1900
DGENRE=
TTITLE0=Johnny B Goode
TTITLE1=Sugaree
TTITLE2=Me and My Uncle
TTITLE3=China Cat Sunflower
TTITLE4=I Know You Rider
TTITLE5=El Paso
TTITLE6=Deal
TTITLE7=Big River
TTITLE8=Tennessee Jed
TTITLE9=Truckin'
TTITLE10=Stella Blue
TTITLE11=Around and Around
EXTD=
EXTT0=
EXTT1=
EXTT2=
EXTT3=
EXTT4=
EXTT5=
EXTT6=
EXTT7=
EXTT8=
EXTT9=
EXTT10=
EXTT11=
PLAYORDER=
